<svg width="49" height="29" viewBox="0 0 49 29" fill="none" xmlns="http://www.w3.org/2000/svg">
<g clip-path="url(#clip0_111_45)">
<path d="M43.7368 11.07C43.195 10.7298 42.982 10.375 42.9905 9.74264C43.0263 7.1693 43.0052 4.59804 43.0052 2.02052C43.0052 0.350871 42.9673 0.300781 41.3186 0.300781H1.81297C0.29287 0.304955 0.174805 0.41557 0.174805 1.88486C0.174805 8.14604 0.174805 14.4024 0.174805 20.6538C0.174805 22.2567 0.286545 22.3694 1.90573 22.3694C10.9293 22.3694 19.9536 22.3694 28.9786 22.3694C29.6111 22.3694 30.0328 22.4445 30.3722 23.1228C31.2278 24.8528 32.6081 26.2749 34.32 27.1906C36.0319 28.1062 37.99 28.4695 39.9208 28.2298C41.8339 27.9894 43.6269 27.1752 45.059 25.8967C46.4911 24.6182 47.4938 22.9365 47.9324 21.0775C48.3832 19.1845 48.2205 17.1992 47.4674 15.4029C46.7144 13.6066 45.4091 12.0907 43.7368 11.07ZM41.2195 2.03722V9.80317C40.2033 9.75516 39.2292 9.63412 38.2678 9.68629C37.3064 9.73847 36.4062 9.96387 35.352 10.1329C34.962 7.282 33.9901 4.53543 31.9218 2.03722H41.2195ZM1.98585 20.6162V2.04139H11.138C6.75275 8.18569 6.80335 14.3404 11.1633 20.6162H1.98585ZM29.415 20.2322C29.413 20.3602 29.3967 20.4876 29.3665 20.6121C29.025 20.6287 28.6834 20.658 28.344 20.658C23.7753 20.658 19.2087 20.6371 14.64 20.6747C14.2952 20.6889 13.9521 20.6215 13.6389 20.4781C13.3258 20.3347 13.0517 20.1195 12.8395 19.8503C8.50476 15.002 8.53638 7.43853 12.9807 2.70716C13.4157 2.29148 13.9895 2.04795 14.5936 2.02261C19.2656 1.9746 23.9397 2.01008 28.6118 1.9746C28.937 1.96182 29.2608 2.02376 29.5578 2.15556C29.8548 2.28736 30.117 2.48544 30.3237 2.73429C32.2658 4.82985 33.4081 7.53068 33.5536 10.3708C33.5598 10.5495 33.5287 10.7275 33.4623 10.8937C33.3959 11.06 33.2957 11.2109 33.1678 11.3372C30.2858 13.635 28.9912 16.5715 29.415 20.2322ZM38.719 26.5894C37.197 26.5824 35.7111 26.1291 34.4491 25.2867C33.1871 24.4444 32.2056 23.2507 31.6284 21.8565C31.0512 20.4623 30.9043 18.9301 31.2062 17.4533C31.5081 15.9765 32.2452 14.6214 33.3246 13.559C34.404 12.4966 35.7771 11.7747 37.2706 11.4843C38.7642 11.194 40.3112 11.3482 41.7162 11.9275C43.1213 12.5069 44.3214 13.4854 45.1651 14.7395C46.0088 15.9935 46.4582 17.467 46.4565 18.9737C46.4605 19.9786 46.2627 20.9743 45.8747 21.9029C45.4867 22.8315 44.9162 23.6746 44.1964 24.3831C43.4765 25.0916 42.6216 25.6515 41.6813 26.0303C40.741 26.409 39.7341 26.5991 38.719 26.5894Z" fill="white"/>
<path d="M26.6696 9.1812C26.6233 9.49843 26.21 10.016 25.9844 10.016C25.0715 9.95133 24.8586 10.5002 24.5213 11.1576C23.7876 12.5977 22.5352 13.3637 20.8886 13.4534C20.5829 13.4701 20.273 13.4534 19.6447 13.4534L23.6737 16.8261C24.1186 17.1997 24.6077 17.6275 24.0954 18.2098C23.6189 18.7608 23.0412 18.5876 22.5184 18.1472C20.7137 16.5965 18.8794 15.0792 17.1084 13.4952C16.9492 13.3348 16.8273 13.1418 16.7516 12.9297C16.6758 12.7177 16.6479 12.4918 16.6699 12.268C16.7184 12.0321 17.3762 11.8109 17.7768 11.7817C18.7192 11.7107 19.6743 11.7817 20.6188 11.7566C21.7214 11.7379 22.5648 11.2996 23.1256 10.0724H18.4409C18.0888 10.0724 17.6882 10.1746 17.3994 10.0411C17.0452 9.87828 16.7859 9.51722 16.4844 9.24173C16.8006 8.95371 17.1042 8.43821 17.4373 8.41943C18.9764 8.32968 20.526 8.37977 22.0756 8.37351C22.3813 8.37351 22.6849 8.34012 23.0834 8.31507C22.628 7.14632 21.7889 6.70595 20.701 6.67256C19.6468 6.63916 18.5927 6.66003 17.5385 6.66212C16.9356 6.66212 16.3937 6.44089 16.535 5.79182C16.6088 5.45997 17.1675 4.99873 17.5006 4.99039C20.24 4.92638 22.9808 4.92638 25.723 4.99039C26.0624 4.99039 26.6001 5.45997 26.676 5.7939C26.8278 6.46176 26.267 6.65377 25.6745 6.65795H24.283C24.7047 7.56164 24.7047 8.58848 26.0456 8.43612C26.2353 8.41942 26.7034 8.9558 26.6696 9.1812Z" fill="white"/>
<path d="M42.3813 17.3937C40.8907 18.8672 39.3896 20.3407 37.9138 21.8225C37.2939 22.4486 36.7605 22.4966 36.1407 21.8329C35.4724 21.1191 34.764 20.4429 34.0598 19.7625C33.6381 19.3451 33.3872 18.9027 33.849 18.408C34.3739 17.8508 34.8567 18.1534 35.2826 18.598C35.8139 19.151 36.3368 19.7083 37.0072 20.4137C38.4999 18.9048 39.8429 17.5398 41.1964 16.1811C41.6181 15.7637 42.0735 15.219 42.6976 15.8159C43.3216 16.4128 42.843 16.9367 42.3813 17.3937Z" fill="white"/>
</g>
<defs>
<clipPath id="clip0_111_45">
<rect width="48" height="28" fill="white" transform="translate(0.174805 0.304932)"/>
</clipPath>
</defs>
</svg>
