<svg width="33" height="33" viewBox="0 0 33 33" fill="none" xmlns="http://www.w3.org/2000/svg">
<g clip-path="url(#clip0_73_1368)">
<path d="M31.5875 14.4248C29.3803 11.7646 26.6986 9.53714 23.6785 7.85566C21.6569 6.72261 19.3944 6.08766 17.0785 6.00345C14.619 5.99809 12.2009 6.63666 10.0648 7.85566C6.54643 9.80509 3.48068 12.4774 1.06923 15.6967C0.910692 15.8631 0.822266 16.0842 0.822266 16.3141C0.822266 16.544 0.910692 16.765 1.06923 16.9315C1.68663 17.6538 2.22994 18.3762 2.8597 19.0554C5.04811 21.5281 7.68311 23.5662 10.6266 25.0627C12.4748 26.0094 14.5092 26.5364 16.5846 26.6062C18.8359 26.6247 21.0582 26.0972 23.0611 25.0689C25.6782 23.7464 28.0468 21.9814 30.0625 19.8518C31.1001 18.8479 32.033 17.7412 32.847 16.5487V16.0486C32.4209 15.5053 32.032 14.9434 31.5875 14.4248ZM30.47 16.629C28.4366 19.1236 25.976 21.2371 23.2031 22.8709C21.2188 24.0812 18.9397 24.722 16.6154 24.7231C14.6865 24.6474 12.8013 24.1254 11.1082 23.1981C8.21775 21.621 5.65327 19.5091 3.55119 16.9747C3.38449 16.7833 3.21779 16.5796 3.05109 16.3573L2.94613 16.2029C3.76728 15.3756 4.53903 14.5051 5.4034 13.6407C7.09367 11.9036 9.04827 10.4449 11.1946 9.31891C13.0065 8.33799 15.0367 7.83044 17.097 7.84331C19.0269 7.92846 20.9112 8.4566 22.6042 9.38682C25.4714 10.9538 28.0165 13.0486 30.1057 15.5609L30.7231 16.277C30.6181 16.4067 30.5379 16.5178 30.47 16.629Z" fill="white"/>
<path d="M6.50815 1.43478C6.45925 1.64742 6.33731 1.83616 6.16358 1.96816C5.98984 2.10015 5.77531 2.16703 5.55735 2.15714H2.7173V2.63254C2.7173 3.41047 2.7173 4.19457 2.7173 4.9725C2.72844 5.10232 2.71243 5.23303 2.67029 5.35632C2.62814 5.47961 2.56078 5.59278 2.4725 5.68861C2.38422 5.78444 2.27695 5.86083 2.15753 5.91293C2.0381 5.96503 1.90914 5.99169 1.77884 5.99121C1.64998 5.99144 1.52243 5.96529 1.40404 5.91438C1.28565 5.86347 1.17894 5.78888 1.09045 5.69519C1.00197 5.6015 0.93359 5.4907 0.889524 5.3696C0.845458 5.2485 0.826637 5.11967 0.834217 4.99102C0.834217 3.84883 0.865087 2.70663 0.834217 1.53974C0.802858 1.28633 0.85373 1.02955 0.979336 0.807236C1.10494 0.584924 1.29864 0.40884 1.53188 0.304932L5.8537 0.304932L5.98336 0.385194C6.17636 0.475343 6.33323 0.628082 6.4285 0.818614C6.52377 1.00915 6.55184 1.22629 6.50815 1.43478Z" fill="white"/>
<path d="M32.8349 0.990249V5.31207C32.8349 5.34294 32.7855 5.36764 32.767 5.40468C32.6886 5.61661 32.5358 5.79283 32.3372 5.90058C32.1386 6.00833 31.9076 6.04026 31.6871 5.99044C31.4667 5.94062 31.2719 5.81244 31.1389 5.62974C31.0059 5.44704 30.9439 5.22225 30.9642 4.99719C30.9642 4.15135 30.9642 3.31168 30.9642 2.47202V2.15714H28.2476C28.008 2.18647 27.766 2.12651 27.5679 1.9887C27.3697 1.85089 27.2292 1.6449 27.1733 1.41008C27.1276 1.18493 27.1649 0.950835 27.2784 0.751078C27.3919 0.55132 27.5739 0.399416 27.7907 0.323454C27.8083 0.320567 27.825 0.314274 27.8401 0.304932L32.162 0.304932C32.4591 0.448268 32.697 0.690576 32.8349 0.990249Z" fill="white"/>
<path d="M32.8343 27.2979V31.6197C32.732 31.8542 32.5562 32.0491 32.3335 32.1749C32.1107 32.3008 31.8531 32.3508 31.5994 32.3174C30.4758 32.3174 29.3521 32.3174 28.2284 32.3174C28.0913 32.3449 27.9498 32.3417 27.8141 32.3079C27.6784 32.2742 27.5519 32.2107 27.4437 32.1221C27.3356 32.0335 27.2484 31.922 27.1886 31.7956C27.1287 31.6692 27.0977 31.5311 27.0977 31.3913C27.0977 31.2514 27.1287 31.1133 27.1886 30.987C27.2484 30.8606 27.3356 30.7491 27.4437 30.6605C27.5519 30.5719 27.6784 30.5084 27.8141 30.4746C27.9498 30.4408 28.0913 30.4376 28.2284 30.4652H30.9635V27.7486C30.9192 27.5028 30.9716 27.2493 31.1096 27.0411C31.2476 26.8329 31.4607 26.686 31.7044 26.6311C31.9296 26.5854 32.1637 26.6227 32.3634 26.7362C32.5632 26.8497 32.7151 27.0317 32.791 27.2485C32.791 27.2485 32.8219 27.2855 32.8343 27.2979Z" fill="white"/>
<path d="M32.8347 0.990249C32.6937 0.68851 32.4512 0.445934 32.1494 0.304932L32.8347 0.304932V0.990249Z" fill="#2A5FFF"/>
<path d="M6.45289 31.7183C6.387 31.8899 6.26988 32.0371 6.11745 32.1398C5.96501 32.2425 5.78465 32.2958 5.60087 32.2925H1.79149C1.66466 32.2968 1.5383 32.275 1.42024 32.2284C1.30219 32.1818 1.19497 32.1115 1.10523 32.0218C1.0155 31.932 0.945163 31.8248 0.898593 31.7068C0.852024 31.5887 0.830214 31.4624 0.834517 31.3355C0.834517 30.076 0.834517 28.8165 0.834517 27.557C0.832053 27.4338 0.854188 27.3114 0.899624 27.1969C0.945061 27.0824 1.01289 26.9781 1.09913 26.8902C1.18537 26.8022 1.2883 26.7323 1.40189 26.6846C1.51547 26.6369 1.63743 26.6124 1.76062 26.6124C1.88566 26.6107 2.00976 26.6342 2.12553 26.6815C2.2413 26.7287 2.34638 26.7988 2.43452 26.8875C2.52265 26.9762 2.59204 27.0818 2.63855 27.1978C2.68506 27.3139 2.70774 27.4382 2.70525 27.5632C2.70525 28.5016 2.70525 29.4154 2.70525 30.4218H5.56382C5.72042 30.4165 5.87581 30.4509 6.01563 30.5216C6.15546 30.5923 6.27521 30.6971 6.36381 30.8263C6.45242 30.9555 6.50703 31.105 6.5226 31.2609C6.53817 31.4168 6.51419 31.5741 6.45289 31.7183Z" fill="white"/>
<path d="M16.8498 9.73878C15.5512 9.73634 14.2811 10.1192 13.2002 10.8388C12.1193 11.5585 11.2762 12.5826 10.7775 13.7817C10.2789 14.9807 10.1472 16.3007 10.399 17.5746C10.6509 18.8485 11.2749 20.019 12.1923 20.9381C13.1097 21.8572 14.2791 22.4835 15.5525 22.7377C16.8259 22.992 18.1461 22.8627 19.3461 22.3664C20.5461 21.87 21.5718 21.0288 22.2935 19.9493C23.0152 18.8697 23.4004 17.6003 23.4004 16.3018C23.3988 14.5638 22.7085 12.8973 21.4807 11.6672C20.2529 10.4371 18.5877 9.74368 16.8498 9.73878ZM16.8498 20.9879C15.9232 20.9891 15.0171 20.7156 14.2459 20.202C13.4748 19.6883 12.8732 18.9576 12.5172 18.1022C12.1612 17.2467 12.0668 16.305 12.2459 15.3959C12.425 14.4868 12.8696 13.6512 13.5235 12.9948C14.1774 12.3383 15.0112 11.8904 15.9196 11.7077C16.8279 11.525 17.7701 11.6157 18.6269 11.9683C19.4837 12.3209 20.2168 12.9196 20.7335 13.6887C21.2502 14.4578 21.5272 15.3629 21.5297 16.2894C21.5297 17.5323 21.0372 18.7246 20.1601 19.6052C19.283 20.4858 18.0927 20.983 16.8498 20.9879Z" fill="white"/>
<path d="M16.8867 13.4865C16.3302 13.4769 15.7834 13.6323 15.3153 13.9333C14.8472 14.2343 14.4787 14.6672 14.2566 15.1775C14.0344 15.6877 13.9684 16.2523 14.067 16.8001C14.1655 17.3478 14.4242 17.854 14.8103 18.2548C15.1965 18.6556 15.6927 18.9329 16.2364 19.0518C16.7801 19.1707 17.3468 19.1258 17.8649 18.9228C18.3831 18.7197 18.8295 18.3677 19.1476 17.9111C19.4658 17.4545 19.6416 16.9138 19.6526 16.3574C19.6658 15.6101 19.382 14.8881 18.8635 14.3499C18.3449 13.8116 17.6339 13.5011 16.8867 13.4865ZM16.8867 17.2341C16.7016 17.2329 16.521 17.177 16.3676 17.0734C16.2142 16.9698 16.0949 16.8232 16.0247 16.652C15.9544 16.4808 15.9363 16.2926 15.9727 16.1111C16.0091 15.9296 16.0984 15.763 16.2293 15.6321C16.3601 15.5013 16.5268 15.412 16.7082 15.3756C16.8897 15.3392 17.0779 15.3573 17.2491 15.4275C17.4203 15.4978 17.567 15.6171 17.6706 15.7705C17.7741 15.9239 17.8301 16.1044 17.8313 16.2895C17.8315 16.4184 17.8054 16.5459 17.7545 16.6643C17.7035 16.7827 17.6289 16.8894 17.5353 16.9779C17.4416 17.0664 17.3308 17.1348 17.2097 17.1788C17.0886 17.2229 16.9597 17.2417 16.8311 17.2341H16.8867Z" fill="white"/>
</g>
<defs>
<clipPath id="clip0_73_1368">
<rect width="32" height="32" fill="white" transform="translate(0.834961 0.304932)"/>
</clipPath>
</defs>
</svg>
