<svg width="33" height="33" viewBox="0 0 33 33" fill="none" xmlns="http://www.w3.org/2000/svg">
<g clip-path="url(#clip0_111_75)">
<path d="M32.6515 7.04222C31.7197 6.08246 30.76 5.12457 29.83 4.19836C29.3325 3.70077 28.8349 3.20505 28.3391 2.70747C28.2363 2.58758 28.11 2.49002 27.968 2.42079C27.826 2.35156 27.6714 2.31213 27.5136 2.30493C27.3582 2.31269 27.2061 2.35167 27.0661 2.41955C26.9262 2.48743 26.8014 2.58282 26.6992 2.70002C26.2295 3.17337 25.7581 3.643 25.2847 4.11449C24.3305 5.0668 23.3428 6.05078 22.3887 7.03477C22.1427 7.28635 21.8873 7.86221 22.0718 8.24238C22.2563 8.62256 22.8769 8.75115 23.1285 8.78097C23.4686 8.81252 23.8104 8.82061 24.1516 8.80519H24.2448C24.2448 9.10896 24.2448 9.409 24.2448 9.70532C24.2448 10.7154 24.228 11.6696 24.2709 12.6312C24.2713 12.7604 24.2613 12.8894 24.2411 13.0169C24.1926 13.4046 24.133 13.8872 24.4274 14.2227C24.531 14.3277 24.6561 14.4088 24.7942 14.4606C24.9322 14.5125 25.0799 14.5336 25.2269 14.5227C25.3648 14.5305 25.5026 14.5086 25.6313 14.4584C25.7599 14.4083 25.8762 14.3311 25.9724 14.232C26.265 13.904 26.2146 13.4251 26.1736 13.0412C26.1575 12.9176 26.1494 12.7931 26.1494 12.6685C26.1904 11.6901 26.1792 10.6986 26.1699 9.73886C26.1699 9.50591 26.1699 9.27482 26.1699 9.04187C26.1699 8.93378 26.1699 8.8201 26.1811 8.70456C26.1997 8.30202 26.2221 7.84544 25.9947 7.49508C25.8228 7.26177 25.5794 7.09098 25.3015 7.00868C26.0283 6.26323 26.7681 5.51779 27.4614 4.81148L28.4193 5.7731L29.6269 6.98445C28.9355 7.17081 28.8815 7.53421 28.8815 8.67288C28.8815 9.0251 28.8815 9.37359 28.8815 9.72395V10.2495C28.8815 11.7404 28.8815 13.2313 28.8815 14.7221C28.8815 19.1147 28.8815 23.6544 28.8964 28.1215C28.8964 28.4942 28.8423 28.7365 28.7305 28.8371C28.6187 28.9377 28.4323 28.9582 28.136 28.9284C27.7336 28.8965 27.3296 28.8915 26.9265 28.9135H26.701C26.2538 28.9247 25.7991 28.9638 25.5829 29.2993C25.3667 29.6347 25.4971 30.0895 25.6779 30.5609L25.7711 30.7995H29.2635L29.3418 30.7603C30.3612 30.2516 30.8327 29.3999 30.8327 28.0823C30.8122 23.5035 30.814 18.8482 30.8177 14.3476C30.8177 12.756 30.8177 11.1651 30.8177 9.57486V8.80147H30.9445C31.2918 8.81592 31.6398 8.80845 31.9862 8.7791C32.0775 8.7791 32.8752 8.67101 32.9926 8.1902C33.0272 7.98551 33.0145 7.77561 32.9554 7.57661C32.8963 7.3776 32.7923 7.1948 32.6515 7.04222Z" fill="white"/>
<path d="M25.786 19.7576C26.742 18.8016 26.9861 17.7579 26.5109 16.6565C25.8642 15.1563 24.5169 14.9793 23.4173 15.011C21.9264 15.0408 20.3834 15.0352 18.8999 15.0296C18.3651 15.0296 17.8284 15.0296 17.2898 15.0296V15.0147C17.2246 14.7985 17.1631 14.5935 17.1034 14.3941C16.9444 13.7729 16.7885 13.1486 16.6357 12.5212C16.3151 11.226 15.9834 9.88606 15.6219 8.57594C15.0777 6.5912 13.9633 5.75444 11.9207 5.76748C10.5752 5.76748 10.3534 5.99484 10.3479 7.34223C10.3423 8.68962 10.3479 10.0743 10.3367 11.4422V13.5406C10.3367 14.7277 9.82791 15.5197 8.78615 15.9633C8.67167 15.987 8.55283 15.9779 8.44325 15.9372C7.77235 15.0818 6.88154 15.0054 6.18642 15.0259C5.66088 15.0445 5.12044 15.0389 4.59676 15.0259H3.88673C2.04362 15.0277 1.69699 15.2626 1.02609 16.9622L1 17.0274V28.8874L1.07827 28.9899L2.2598 30.5087L2.49089 30.7995H7.42572L7.52635 30.723C7.87857 30.4566 8.23266 30.1882 8.62588 29.8863L8.65383 29.8975L10.674 30.7696L10.7448 30.7995H22.4035L22.4874 30.7529C24.2373 29.7838 24.6622 28.8893 24.2038 27.0163C25.6686 25.7677 25.881 24.9254 25.1952 23.2351C26.2854 22.0014 26.4047 21.3007 25.786 19.7576ZM22.4315 25.4136C22.1611 25.387 21.8882 25.4027 21.6227 25.4602C21.3245 25.5404 20.8679 25.8739 20.8232 26.2709C20.7896 26.6157 21.0543 26.9101 21.3282 27.1803C21.4527 27.2903 21.6132 27.3507 21.7792 27.3499H21.8053L22.001 27.5456C22.1482 27.691 22.4203 27.9612 22.4371 28.06C22.4147 28.2892 22.0252 28.6414 21.7662 28.8744L21.7233 28.9135C21.6309 28.9209 21.538 28.9209 21.4456 28.9135C21.3711 28.9135 21.2984 28.9042 21.2295 28.9042C18.2756 28.9042 15.2212 28.9042 12.1611 28.9042C11.7572 28.9007 11.3549 28.8538 10.961 28.7644C9.15142 28.3581 8.78615 27.9071 8.78615 26.0864V17.989C11.4082 16.9789 12.2599 15.7024 12.2636 12.8716C12.2636 11.6416 12.2636 10.4135 12.2636 9.1872V7.70936H12.2879C13.1489 7.70936 13.5085 8.06158 13.7788 9.07352C14.1515 10.4395 14.5037 11.841 14.841 13.194C14.9727 13.727 15.1056 14.2593 15.2398 14.7911C15.3013 15.0352 15.3516 15.2477 15.3945 15.4303C15.7188 16.8056 15.8772 16.9212 17.2469 16.9212C17.4333 16.9212 17.6606 16.9212 17.9216 16.9212C19.0882 16.9212 20.2753 16.9212 21.4214 16.9212C22.137 16.9212 22.8527 16.9212 23.5683 16.9212H23.7546C23.9036 16.9088 24.0536 16.9176 24.2 16.9473C24.4302 16.9978 24.6311 17.1371 24.7591 17.3349C24.789 17.392 24.8062 17.4547 24.8097 17.519C24.8133 17.5833 24.803 17.6476 24.7796 17.7076C24.6883 17.9853 24.2205 18.2891 23.9373 18.4773C23.8749 18.4763 23.8127 18.4713 23.7509 18.4624C23.5597 18.423 23.3616 18.4326 23.1751 18.4903C22.8974 18.6064 22.6346 18.7553 22.3923 18.9339C22.301 18.9972 22.206 19.0587 22.1147 19.1202L21.6171 19.4315L22.1091 19.7501C22.1929 19.8042 22.2824 19.875 22.3756 19.9495C22.6253 20.1489 22.9086 20.3744 23.2552 20.4005C24.0752 20.4658 24.2261 20.7732 24.2038 21.228C24.2085 21.3275 24.1925 21.4268 24.1569 21.5198C24.1213 21.6129 24.0668 21.6975 23.9969 21.7684C23.7975 21.9548 23.4378 21.9548 23.1844 21.9343H23.1397C23.0012 21.9102 22.8588 21.9244 22.7278 21.9753C22.6309 22.0181 22.5079 22.061 22.3774 22.1076C21.9283 22.2641 21.5053 22.4132 21.4456 22.799C21.4133 22.9296 21.4104 23.0657 21.4372 23.1975C21.4639 23.3293 21.5197 23.4536 21.6003 23.5612C21.8612 23.8817 22.3066 23.8967 22.6328 23.906H22.8191C23.5105 23.9563 23.6447 24.2321 23.6372 24.6514C23.6372 25.0241 23.518 25.4192 22.7315 25.4285C22.6272 25.4267 22.5284 25.4136 22.4315 25.4136ZM6.89086 21.5001C6.89086 21.8728 6.89086 22.2455 6.89086 22.6313H6.87595V23.004C6.87595 23.5009 6.87595 24.0035 6.87595 24.5116C6.87595 25.7491 6.86664 27.0275 6.89086 28.2854C6.89086 28.5613 6.85918 28.7439 6.77718 28.824C6.64181 28.9092 6.48111 28.9447 6.32246 28.9247C5.90501 28.9247 5.47452 28.9098 4.9993 28.9098C4.55576 28.9098 4.0675 28.9098 3.52705 28.9228C3.37836 28.9407 3.228 28.9078 3.10029 28.8296C3.02423 28.7113 2.99011 28.5709 3.00338 28.4308C3.01829 24.8545 3.01829 21.1478 3.00338 17.4132C2.98428 17.268 3.0173 17.1207 3.09656 16.9976C3.2173 16.923 3.36091 16.8946 3.50096 16.9174H3.68732C4.50435 16.964 5.32351 16.9584 6.13983 16.9007C6.34483 16.882 6.61691 16.8858 6.74364 17.0013C6.87036 17.1169 6.90763 17.3386 6.90204 17.7169C6.88341 18.9749 6.88714 20.2533 6.89086 21.5001Z" fill="white"/>
</g>
<defs>
<clipPath id="clip0_111_75">
<rect width="32" height="32" fill="white" transform="translate(0.514648 0.304932)"/>
</clipPath>
</defs>
</svg>
