<svg width="33" height="33" viewBox="0 0 33 33" fill="none" xmlns="http://www.w3.org/2000/svg">
<g clip-path="url(#clip0_111_60)">
<path d="M17.0607 0.304836C14.9536 0.295752 12.8654 0.703195 10.9162 1.50375C8.96704 2.3043 7.1953 3.48218 5.70281 4.96968C4.21032 6.45719 3.02653 8.22499 2.21946 10.1715C1.41239 12.118 0.997969 14.2048 1.00001 16.3119C0.993442 25.1203 8.16157 32.2873 16.9754 32.2873C25.7137 32.2873 32.9081 25.1509 32.9967 16.557C33.0919 7.66992 25.9183 0.315778 17.0607 0.304836ZM16.9644 30.0672C9.3641 30.0573 3.18842 23.8488 3.22124 16.2441C3.24969 8.66237 9.43194 2.51513 17.0181 2.52607C24.6042 2.53701 30.7733 8.73021 30.7624 16.2977C30.7492 23.9156 24.5713 30.0825 16.9644 30.0672Z" fill="white"/>
<path d="M26.9977 11.6243C26.8292 12.7962 26.6814 13.9725 26.4746 15.1389C26.4243 15.4256 26.2438 15.7747 26.0129 15.9246C25.6726 16.1434 25.3651 15.8688 25.1244 15.5963C24.9307 15.3775 24.7392 15.1586 24.5215 14.9113C24.3541 15.047 24.2392 15.1302 24.1429 15.2221C22.5424 16.8182 20.9431 18.4161 19.3448 20.0158C18.5712 20.7817 18.0175 20.7817 17.2483 20.0158C16.1658 18.9325 15.0822 17.8504 13.9974 16.7693C13.9385 16.7333 13.8762 16.7033 13.8114 16.6796C13.0739 17.4324 12.3167 18.2114 11.5508 18.984C10.7294 19.8075 9.90365 20.63 9.07351 21.4514C8.48592 22.0313 7.77688 22.0718 7.29105 21.5696C6.78991 21.0509 6.83805 20.3856 7.43658 19.7849C9.25223 17.9612 11.0697 16.143 12.889 14.3303C13.5926 13.6289 14.1966 13.641 14.9122 14.3577C15.8911 15.3366 16.8697 16.3174 17.8479 17.3C17.9869 17.4389 18.1346 17.5702 18.2615 17.6884L22.7095 13.2098C22.483 12.9724 22.1996 12.6967 21.9435 12.4001C21.5266 11.9241 21.7017 11.365 22.3221 11.2643C23.5987 11.0564 24.8789 10.8701 26.1628 10.7052C26.8138 10.621 27.094 10.9547 26.9977 11.6243Z" fill="white"/>
</g>
<defs>
<clipPath id="clip0_111_60">
<rect width="32" height="32" fill="white" transform="translate(0.844727 0.304932)"/>
</clipPath>
</defs>
</svg>
