<svg width="33" height="33" viewBox="0 0 33 33" fill="none" xmlns="http://www.w3.org/2000/svg">
<g clip-path="url(#clip0_111_30)">
<path d="M31.3601 27.5599C30.7483 26.8856 30.0787 26.2639 29.4344 25.6192C28.1494 24.3335 26.8638 23.0482 25.5775 21.7634C25.2701 21.4565 24.8817 21.2433 24.4576 21.1487C24.2775 21.1074 24.096 21.0716 23.8904 21.0282C25.2565 19.1653 26.082 17.1037 26.3077 14.8204C26.5334 12.5371 26.2105 10.3276 25.2429 8.22442C24.2811 6.13582 22.8627 4.4288 20.9879 3.10337C16.3322 -0.176005 9.49625 -0.0792087 4.83763 4.43842C0.919399 8.24086 -0.329086 14.4961 2.65113 19.7932C4.12645 22.4151 6.29358 24.3174 9.11857 25.3566C13.3754 26.9225 17.3959 26.3315 21.1457 23.7779C21.1603 23.8133 21.1715 23.85 21.1793 23.8875C21.2447 24.5702 21.5446 25.1294 22.0293 25.6126C23.7643 27.3367 25.4866 29.0739 27.2234 30.7965C27.5058 31.0767 27.8309 31.3156 28.1501 31.5548C28.2743 31.6476 28.4368 31.6885 28.5819 31.7531C28.5819 31.7645 28.5786 31.7754 28.5771 31.7867H30.1949C30.1923 31.7718 30.1905 31.7564 30.1887 31.7415C30.2705 31.7108 30.3545 31.6848 30.4338 31.6483C31.2132 31.2852 31.7221 30.6968 31.9197 29.8519C32.1209 28.9935 31.9474 28.2068 31.3601 27.5599ZM14.1103 24.7802C7.41423 25.0118 2.49151 19.6244 2.42175 13.7528C2.34467 7.25098 7.52015 2.5025 13.1537 2.24682C19.8899 1.93926 25.1582 7.43362 24.9518 13.7316C24.8886 19.73 19.944 24.5778 14.1103 24.7798V24.7802Z" fill="white"/>
<path d="M6.20764 15.4793C6.00127 15.6021 5.82594 15.7043 5.65317 15.8099C5.4804 15.9155 5.31055 16.0393 5.12791 16.135C5.01833 16.192 4.98181 16.2595 4.98473 16.3772C4.98948 17.004 4.98801 17.6311 4.98692 18.2583C4.98389 18.318 4.97779 18.3775 4.96866 18.4365L4.91752 18.4431C4.78346 18.1688 4.64393 17.8952 4.51572 17.6198C4.24031 17.0226 4.04782 16.3976 3.886 15.7617C3.85495 15.639 3.89806 15.575 3.98718 15.5206C4.81049 15.0173 5.63442 14.5147 6.45895 14.0128C6.62916 13.909 6.80193 13.9032 7.00027 13.9554C7.58689 14.111 8.18009 14.2425 8.76963 14.3868C9.19444 14.4909 9.61778 14.6012 10.0419 14.7079C10.4659 14.8145 10.8911 14.9165 11.3141 15.0271C11.4419 15.0607 11.4916 14.9749 11.5475 14.8993C12.026 14.2486 12.5034 13.5972 12.9797 12.9451C13.1699 12.685 13.3604 12.4253 13.5514 12.166C13.6931 11.9731 13.8779 11.8877 14.1212 11.9209C14.7896 12.0126 15.4588 12.0991 16.1276 12.1857C16.7003 12.2588 17.2738 12.3296 17.8462 12.4049C18.5091 12.4918 19.1721 12.5791 19.8332 12.6763C19.9753 12.6971 20.0579 12.6602 20.1368 12.5433C20.9136 11.3908 21.6928 10.2401 22.4745 9.09116C22.5169 9.02907 22.5676 8.97245 22.6312 8.89282C23.5538 10.6903 23.8643 12.5681 23.6875 14.5337C23.5962 15.579 23.0991 17.3181 22.8171 17.5625V10.6655C22.744 10.7268 22.6991 10.7506 22.6739 10.7878C22.317 11.3156 21.9595 11.8431 21.6117 12.3767C21.5635 12.4498 21.55 12.5594 21.55 12.6503C21.5463 14.9574 21.5463 17.2646 21.55 19.5722C21.55 19.7161 21.5157 19.8278 21.417 19.9319C21.1529 20.2081 20.8943 20.4897 20.6313 20.7669C20.5713 20.8193 20.5083 20.8681 20.4425 20.9131V13.8561C20.0648 13.8093 19.7288 13.775 19.3956 13.7231C19.221 13.6961 19.1765 13.7498 19.1765 13.9229C19.1809 16.5163 19.1765 19.1097 19.182 21.7031C19.182 21.8602 19.1454 21.9669 18.9993 22.0432C18.7071 22.1966 18.4189 22.3628 18.0898 22.5458C18.0796 22.4176 18.0675 22.3372 18.0675 22.2565C18.0675 19.4503 18.0675 16.6438 18.0675 13.8371C18.0675 13.5504 18.0675 13.5536 17.7907 13.5219C17.5138 13.4901 17.2471 13.4561 16.9772 13.4123C16.8694 13.3955 16.8285 13.4324 16.8274 13.5332C16.8274 13.5697 16.8274 13.6062 16.8274 13.6428C16.8274 16.711 16.826 19.7793 16.8231 22.8475C16.8231 22.9242 16.7785 23.0513 16.7255 23.0696C16.4067 23.1792 16.0794 23.2636 15.7283 23.364C15.7225 23.2497 15.7159 23.1788 15.7156 23.1083C15.7156 19.9003 15.7165 16.692 15.7185 13.4835C15.7185 13.3009 15.6725 13.2245 15.4847 13.2085C15.1947 13.1833 14.9061 13.1354 14.6183 13.0905C14.4956 13.0708 14.4463 13.1153 14.4474 13.2326C14.4474 13.2936 14.4474 13.3542 14.4474 13.4152C14.4474 16.7026 14.4483 19.99 14.4503 23.2774C14.4503 23.4484 14.4218 23.5386 14.2256 23.5331C13.9893 23.5269 13.7508 23.5452 13.5156 23.5583C13.3841 23.5656 13.3432 23.5013 13.3468 23.3819C13.3505 23.2544 13.3468 23.1262 13.3468 22.9984C13.3468 20.2043 13.3468 17.4101 13.3468 14.6158V14.442L13.2975 14.4226C13.2029 14.5421 13.1039 14.6586 13.014 14.7813C12.7419 15.1539 12.4661 15.5246 12.2079 15.906C12.1393 16.0102 12.1014 16.1315 12.0983 16.2563C12.0917 18.5757 12.0917 20.8952 12.0983 23.2146C12.0983 23.3815 12.0552 23.4392 11.8905 23.4005C11.6308 23.3392 11.3681 23.2909 11.1099 23.2223C11.0635 23.2099 11.023 23.1386 11.0003 23.086C10.9824 23.0448 10.9959 22.99 10.9959 22.9399C10.9959 20.7181 10.9969 18.4961 10.9989 16.2738C10.9989 16.1302 10.9572 16.0663 10.8206 16.0349C10.5068 15.9618 10.196 15.8786 9.88406 15.7989C9.71275 15.7551 9.71166 15.8596 9.71202 15.9838C9.71373 18.1388 9.71373 20.2939 9.71202 22.449C9.71202 22.5319 9.70362 22.6148 9.69632 22.7474C9.4125 22.6057 9.16631 22.4684 8.90843 22.3584C8.66443 22.2543 8.60563 22.0892 8.60672 21.8317C8.61805 19.7924 8.61074 17.7531 8.61658 15.7138C8.61658 15.5476 8.56581 15.4687 8.40619 15.434C8.11398 15.3708 7.82541 15.3022 7.53904 15.2215C7.37029 15.1736 7.3407 15.239 7.34107 15.3887C7.34424 16.5941 7.34424 17.7995 7.34107 19.0049C7.34107 19.6928 7.34107 20.3807 7.34107 21.0687C7.34107 21.1322 7.3334 21.1954 7.32646 21.3002C7.23953 21.2294 7.18327 21.1907 7.1336 21.1417C6.8801 20.8977 6.62916 20.6504 6.37494 20.4072C6.26536 20.3038 6.227 20.1851 6.22883 20.0331C6.23358 18.5965 6.23175 17.1599 6.22883 15.723C6.22372 15.6565 6.21531 15.5871 6.20764 15.4793Z" fill="white"/>
</g>
<defs>
<clipPath id="clip0_111_30">
<rect width="32" height="32" fill="white" transform="translate(0.504883 0.304932)"/>
</clipPath>
</defs>
</svg>
